<?xml version="1.0" encoding="utf-8" standalone="no"?>
<!DOCTYPE svg PUBLIC "-//W3C//DTD SVG 1.1//EN"
  "http://www.w3.org/Graphics/SVG/1.1/DTD/svg11.dtd">
<svg xmlns:xlink="http://www.w3.org/1999/xlink" width="1440pt" height="432pt" viewBox="0 0 1440 432" xmlns="http://www.w3.org/2000/svg" version="1.1">
 <metadata>
  <rdf:RDF xmlns:dc="http://purl.org/dc/elements/1.1/" xmlns:cc="http://creativecommons.org/ns#" xmlns:rdf="http://www.w3.org/1999/02/22-rdf-syntax-ns#">
   <cc:Work>
    <dc:type rdf:resource="http://purl.org/dc/dcmitype/StillImage"/>
    <dc:date>2024-08-29T14:11:07.203412</dc:date>
    <dc:format>image/svg+xml</dc:format>
    <dc:creator>
     <cc:Agent>
      <dc:title>Matplotlib v3.6.3, https://matplotlib.org/</dc:title>
     </cc:Agent>
    </dc:creator>
   </cc:Work>
  </rdf:RDF>
 </metadata>
 <defs>
  <style type="text/css">*{stroke-linejoin: round; stroke-linecap: butt}</style>
 </defs>
 <g id="figure_1">
  <g id="patch_1">
   <path d="M 0 432 
L 1440 432 
L 1440 0 
L 0 0 
z
" style="fill: #ffffff"/>
  </g>
  <g id="axes_1">
   <g id="patch_2">
    <path d="M 180 384.48 
L 1296 384.48 
L 1296 51.84 
L 180 51.84 
z
" style="fill: #ffffff"/>
   </g>
   <g id="matplotlib.axis_1">
    <g id="xtick_1">
     <g id="line2d_1">
      <path d="M 230.727273 384.48 
L 230.727273 51.84 
" clip-path="url(#p8830904972)" style="fill: none; stroke: #b0b0b0; stroke-width: 0.8; stroke-linecap: square"/>
     </g>
     <g id="line2d_2">
      <defs>
       <path id="mcecb4c5808" d="M 0 0 
L 0 3.5 
" style="stroke: #000000; stroke-width: 0.8"/>
      </defs>
      <g>
       <use xlink:href="#mcecb4c5808" x="230.727273" y="384.48" style="stroke: #000000; stroke-width: 0.8"/>
      </g>
     </g>
     <g id="text_1">
      <!-- 0.000 -->
      <g transform="translate(216.41321 399.078438) scale(0.1 -0.1)">
       <defs>
        <path id="DejaVuSans-30" d="M 2034 4250 
Q 1547 4250 1301 3770 
Q 1056 3291 1056 2328 
Q 1056 1369 1301 889 
Q 1547 409 2034 409 
Q 2525 409 2770 889 
Q 3016 1369 3016 2328 
Q 3016 3291 2770 3770 
Q 2525 4250 2034 4250 
z
M 2034 4750 
Q 2819 4750 3233 4129 
Q 3647 3509 3647 2328 
Q 3647 1150 3233 529 
Q 2819 -91 2034 -91 
Q 1250 -91 836 529 
Q 422 1150 422 2328 
Q 422 3509 836 4129 
Q 1250 4750 2034 4750 
z
" transform="scale(0.015625)"/>
        <path id="DejaVuSans-2e" d="M 684 794 
L 1344 794 
L 1344 0 
L 684 0 
L 684 794 
z
" transform="scale(0.015625)"/>
       </defs>
       <use xlink:href="#DejaVuSans-30"/>
       <use xlink:href="#DejaVuSans-2e" x="63.623047"/>
       <use xlink:href="#DejaVuSans-30" x="95.410156"/>
       <use xlink:href="#DejaVuSans-30" x="159.033203"/>
       <use xlink:href="#DejaVuSans-30" x="222.65625"/>
      </g>
     </g>
    </g>
    <g id="xtick_2">
     <g id="line2d_3">
      <path d="M 382.909091 384.48 
L 382.909091 51.84 
" clip-path="url(#p8830904972)" style="fill: none; stroke: #b0b0b0; stroke-width: 0.8; stroke-linecap: square"/>
     </g>
     <g id="line2d_4">
      <g>
       <use xlink:href="#mcecb4c5808" x="382.909091" y="384.48" style="stroke: #000000; stroke-width: 0.8"/>
      </g>
     </g>
     <g id="text_2">
      <!-- 0.005 -->
      <g transform="translate(368.595028 399.078438) scale(0.1 -0.1)">
       <defs>
        <path id="DejaVuSans-35" d="M 691 4666 
L 3169 4666 
L 3169 4134 
L 1269 4134 
L 1269 2991 
Q 1406 3038 1543 3061 
Q 1681 3084 1819 3084 
Q 2600 3084 3056 2656 
Q 3513 2228 3513 1497 
Q 3513 744 3044 326 
Q 2575 -91 1722 -91 
Q 1428 -91 1123 -41 
Q 819 9 494 109 
L 494 744 
Q 775 591 1075 516 
Q 1375 441 1709 441 
Q 2250 441 2565 725 
Q 2881 1009 2881 1497 
Q 2881 1984 2565 2268 
Q 2250 2553 1709 2553 
Q 1456 2553 1204 2497 
Q 953 2441 691 2322 
L 691 4666 
z
" transform="scale(0.015625)"/>
       </defs>
       <use xlink:href="#DejaVuSans-30"/>
       <use xlink:href="#DejaVuSans-2e" x="63.623047"/>
       <use xlink:href="#DejaVuSans-30" x="95.410156"/>
       <use xlink:href="#DejaVuSans-30" x="159.033203"/>
       <use xlink:href="#DejaVuSans-35" x="222.65625"/>
      </g>
     </g>
    </g>
    <g id="xtick_3">
     <g id="line2d_5">
      <path d="M 535.090909 384.48 
L 535.090909 51.84 
" clip-path="url(#p8830904972)" style="fill: none; stroke: #b0b0b0; stroke-width: 0.8; stroke-linecap: square"/>
     </g>
     <g id="line2d_6">
      <g>
       <use xlink:href="#mcecb4c5808" x="535.090909" y="384.48" style="stroke: #000000; stroke-width: 0.8"/>
      </g>
     </g>
     <g id="text_3">
      <!-- 0.010 -->
      <g transform="translate(520.776847 399.078438) scale(0.1 -0.1)">
       <defs>
        <path id="DejaVuSans-31" d="M 794 531 
L 1825 531 
L 1825 4091 
L 703 3866 
L 703 4441 
L 1819 4666 
L 2450 4666 
L 2450 531 
L 3481 531 
L 3481 0 
L 794 0 
L 794 531 
z
" transform="scale(0.015625)"/>
       </defs>
       <use xlink:href="#DejaVuSans-30"/>
       <use xlink:href="#DejaVuSans-2e" x="63.623047"/>
       <use xlink:href="#DejaVuSans-30" x="95.410156"/>
       <use xlink:href="#DejaVuSans-31" x="159.033203"/>
       <use xlink:href="#DejaVuSans-30" x="222.65625"/>
      </g>
     </g>
    </g>
    <g id="xtick_4">
     <g id="line2d_7">
      <path d="M 687.272727 384.48 
L 687.272727 51.84 
" clip-path="url(#p8830904972)" style="fill: none; stroke: #b0b0b0; stroke-width: 0.8; stroke-linecap: square"/>
     </g>
     <g id="line2d_8">
      <g>
       <use xlink:href="#mcecb4c5808" x="687.272727" y="384.48" style="stroke: #000000; stroke-width: 0.8"/>
      </g>
     </g>
     <g id="text_4">
      <!-- 0.015 -->
      <g transform="translate(672.958665 399.078438) scale(0.1 -0.1)">
       <use xlink:href="#DejaVuSans-30"/>
       <use xlink:href="#DejaVuSans-2e" x="63.623047"/>
       <use xlink:href="#DejaVuSans-30" x="95.410156"/>
       <use xlink:href="#DejaVuSans-31" x="159.033203"/>
       <use xlink:href="#DejaVuSans-35" x="222.65625"/>
      </g>
     </g>
    </g>
    <g id="xtick_5">
     <g id="line2d_9">
      <path d="M 839.454545 384.48 
L 839.454545 51.84 
" clip-path="url(#p8830904972)" style="fill: none; stroke: #b0b0b0; stroke-width: 0.8; stroke-linecap: square"/>
     </g>
     <g id="line2d_10">
      <g>
       <use xlink:href="#mcecb4c5808" x="839.454545" y="384.48" style="stroke: #000000; stroke-width: 0.8"/>
      </g>
     </g>
     <g id="text_5">
      <!-- 0.020 -->
      <g transform="translate(825.140483 399.078438) scale(0.1 -0.1)">
       <defs>
        <path id="DejaVuSans-32" d="M 1228 531 
L 3431 531 
L 3431 0 
L 469 0 
L 469 531 
Q 828 903 1448 1529 
Q 2069 2156 2228 2338 
Q 2531 2678 2651 2914 
Q 2772 3150 2772 3378 
Q 2772 3750 2511 3984 
Q 2250 4219 1831 4219 
Q 1534 4219 1204 4116 
Q 875 4013 500 3803 
L 500 4441 
Q 881 4594 1212 4672 
Q 1544 4750 1819 4750 
Q 2544 4750 2975 4387 
Q 3406 4025 3406 3419 
Q 3406 3131 3298 2873 
Q 3191 2616 2906 2266 
Q 2828 2175 2409 1742 
Q 1991 1309 1228 531 
z
" transform="scale(0.015625)"/>
       </defs>
       <use xlink:href="#DejaVuSans-30"/>
       <use xlink:href="#DejaVuSans-2e" x="63.623047"/>
       <use xlink:href="#DejaVuSans-30" x="95.410156"/>
       <use xlink:href="#DejaVuSans-32" x="159.033203"/>
       <use xlink:href="#DejaVuSans-30" x="222.65625"/>
      </g>
     </g>
    </g>
    <g id="xtick_6">
     <g id="line2d_11">
      <path d="M 991.636364 384.48 
L 991.636364 51.84 
" clip-path="url(#p8830904972)" style="fill: none; stroke: #b0b0b0; stroke-width: 0.8; stroke-linecap: square"/>
     </g>
     <g id="line2d_12">
      <g>
       <use xlink:href="#mcecb4c5808" x="991.636364" y="384.48" style="stroke: #000000; stroke-width: 0.8"/>
      </g>
     </g>
     <g id="text_6">
      <!-- 0.025 -->
      <g transform="translate(977.322301 399.078438) scale(0.1 -0.1)">
       <use xlink:href="#DejaVuSans-30"/>
       <use xlink:href="#DejaVuSans-2e" x="63.623047"/>
       <use xlink:href="#DejaVuSans-30" x="95.410156"/>
       <use xlink:href="#DejaVuSans-32" x="159.033203"/>
       <use xlink:href="#DejaVuSans-35" x="222.65625"/>
      </g>
     </g>
    </g>
    <g id="xtick_7">
     <g id="line2d_13">
      <path d="M 1143.818182 384.48 
L 1143.818182 51.84 
" clip-path="url(#p8830904972)" style="fill: none; stroke: #b0b0b0; stroke-width: 0.8; stroke-linecap: square"/>
     </g>
     <g id="line2d_14">
      <g>
       <use xlink:href="#mcecb4c5808" x="1143.818182" y="384.48" style="stroke: #000000; stroke-width: 0.8"/>
      </g>
     </g>
     <g id="text_7">
      <!-- 0.030 -->
      <g transform="translate(1129.504119 399.078438) scale(0.1 -0.1)">
       <defs>
        <path id="DejaVuSans-33" d="M 2597 2516 
Q 3050 2419 3304 2112 
Q 3559 1806 3559 1356 
Q 3559 666 3084 287 
Q 2609 -91 1734 -91 
Q 1441 -91 1130 -33 
Q 819 25 488 141 
L 488 750 
Q 750 597 1062 519 
Q 1375 441 1716 441 
Q 2309 441 2620 675 
Q 2931 909 2931 1356 
Q 2931 1769 2642 2001 
Q 2353 2234 1838 2234 
L 1294 2234 
L 1294 2753 
L 1863 2753 
Q 2328 2753 2575 2939 
Q 2822 3125 2822 3475 
Q 2822 3834 2567 4026 
Q 2313 4219 1838 4219 
Q 1578 4219 1281 4162 
Q 984 4106 628 3988 
L 628 4550 
Q 988 4650 1302 4700 
Q 1616 4750 1894 4750 
Q 2613 4750 3031 4423 
Q 3450 4097 3450 3541 
Q 3450 3153 3228 2886 
Q 3006 2619 2597 2516 
z
" transform="scale(0.015625)"/>
       </defs>
       <use xlink:href="#DejaVuSans-30"/>
       <use xlink:href="#DejaVuSans-2e" x="63.623047"/>
       <use xlink:href="#DejaVuSans-30" x="95.410156"/>
       <use xlink:href="#DejaVuSans-33" x="159.033203"/>
       <use xlink:href="#DejaVuSans-30" x="222.65625"/>
      </g>
     </g>
    </g>
    <g id="xtick_8">
     <g id="line2d_15">
      <path d="M 1296 384.48 
L 1296 51.84 
" clip-path="url(#p8830904972)" style="fill: none; stroke: #b0b0b0; stroke-width: 0.8; stroke-linecap: square"/>
     </g>
     <g id="line2d_16">
      <g>
       <use xlink:href="#mcecb4c5808" x="1296" y="384.48" style="stroke: #000000; stroke-width: 0.8"/>
      </g>
     </g>
     <g id="text_8">
      <!-- 0.035 -->
      <g transform="translate(1281.685938 399.078438) scale(0.1 -0.1)">
       <use xlink:href="#DejaVuSans-30"/>
       <use xlink:href="#DejaVuSans-2e" x="63.623047"/>
       <use xlink:href="#DejaVuSans-30" x="95.410156"/>
       <use xlink:href="#DejaVuSans-33" x="159.033203"/>
       <use xlink:href="#DejaVuSans-35" x="222.65625"/>
      </g>
     </g>
    </g>
    <g id="text_9">
     <!-- time(t) -->
     <g transform="translate(720.842188 412.756563) scale(0.1 -0.1)">
      <defs>
       <path id="DejaVuSans-74" d="M 1172 4494 
L 1172 3500 
L 2356 3500 
L 2356 3053 
L 1172 3053 
L 1172 1153 
Q 1172 725 1289 603 
Q 1406 481 1766 481 
L 2356 481 
L 2356 0 
L 1766 0 
Q 1100 0 847 248 
Q 594 497 594 1153 
L 594 3053 
L 172 3053 
L 172 3500 
L 594 3500 
L 594 4494 
L 1172 4494 
z
" transform="scale(0.015625)"/>
       <path id="DejaVuSans-69" d="M 603 3500 
L 1178 3500 
L 1178 0 
L 603 0 
L 603 3500 
z
M 603 4863 
L 1178 4863 
L 1178 4134 
L 603 4134 
L 603 4863 
z
" transform="scale(0.015625)"/>
       <path id="DejaVuSans-6d" d="M 3328 2828 
Q 3544 3216 3844 3400 
Q 4144 3584 4550 3584 
Q 5097 3584 5394 3201 
Q 5691 2819 5691 2113 
L 5691 0 
L 5113 0 
L 5113 2094 
Q 5113 2597 4934 2840 
Q 4756 3084 4391 3084 
Q 3944 3084 3684 2787 
Q 3425 2491 3425 1978 
L 3425 0 
L 2847 0 
L 2847 2094 
Q 2847 2600 2669 2842 
Q 2491 3084 2119 3084 
Q 1678 3084 1418 2786 
Q 1159 2488 1159 1978 
L 1159 0 
L 581 0 
L 581 3500 
L 1159 3500 
L 1159 2956 
Q 1356 3278 1631 3431 
Q 1906 3584 2284 3584 
Q 2666 3584 2933 3390 
Q 3200 3197 3328 2828 
z
" transform="scale(0.015625)"/>
       <path id="DejaVuSans-65" d="M 3597 1894 
L 3597 1613 
L 953 1613 
Q 991 1019 1311 708 
Q 1631 397 2203 397 
Q 2534 397 2845 478 
Q 3156 559 3463 722 
L 3463 178 
Q 3153 47 2828 -22 
Q 2503 -91 2169 -91 
Q 1331 -91 842 396 
Q 353 884 353 1716 
Q 353 2575 817 3079 
Q 1281 3584 2069 3584 
Q 2775 3584 3186 3129 
Q 3597 2675 3597 1894 
z
M 3022 2063 
Q 3016 2534 2758 2815 
Q 2500 3097 2075 3097 
Q 1594 3097 1305 2825 
Q 1016 2553 972 2059 
L 3022 2063 
z
" transform="scale(0.015625)"/>
       <path id="DejaVuSans-28" d="M 1984 4856 
Q 1566 4138 1362 3434 
Q 1159 2731 1159 2009 
Q 1159 1288 1364 580 
Q 1569 -128 1984 -844 
L 1484 -844 
Q 1016 -109 783 600 
Q 550 1309 550 2009 
Q 550 2706 781 3412 
Q 1013 4119 1484 4856 
L 1984 4856 
z
" transform="scale(0.015625)"/>
       <path id="DejaVuSans-29" d="M 513 4856 
L 1013 4856 
Q 1481 4119 1714 3412 
Q 1947 2706 1947 2009 
Q 1947 1309 1714 600 
Q 1481 -109 1013 -844 
L 513 -844 
Q 928 -128 1133 580 
Q 1338 1288 1338 2009 
Q 1338 2731 1133 3434 
Q 928 4138 513 4856 
z
" transform="scale(0.015625)"/>
      </defs>
      <use xlink:href="#DejaVuSans-74"/>
      <use xlink:href="#DejaVuSans-69" x="39.208984"/>
      <use xlink:href="#DejaVuSans-6d" x="66.992188"/>
      <use xlink:href="#DejaVuSans-65" x="164.404297"/>
      <use xlink:href="#DejaVuSans-28" x="225.927734"/>
      <use xlink:href="#DejaVuSans-74" x="264.941406"/>
      <use xlink:href="#DejaVuSans-29" x="304.150391"/>
     </g>
    </g>
   </g>
   <g id="matplotlib.axis_2">
    <g id="ytick_1">
     <g id="line2d_17">
      <path d="M 180 369.36 
L 1296 369.36 
" clip-path="url(#p8830904972)" style="fill: none; stroke: #b0b0b0; stroke-width: 0.8; stroke-linecap: square"/>
     </g>
     <g id="line2d_18">
      <defs>
       <path id="m2b732f7938" d="M 0 0 
L -3.5 0 
" style="stroke: #000000; stroke-width: 0.8"/>
      </defs>
      <g>
       <use xlink:href="#m2b732f7938" x="180" y="369.36" style="stroke: #000000; stroke-width: 0.8"/>
      </g>
     </g>
     <g id="text_10">
      <!-- −1.00 -->
      <g transform="translate(142.354688 373.159219) scale(0.1 -0.1)">
       <defs>
        <path id="DejaVuSans-2212" d="M 678 2272 
L 4684 2272 
L 4684 1741 
L 678 1741 
L 678 2272 
z
" transform="scale(0.015625)"/>
       </defs>
       <use xlink:href="#DejaVuSans-2212"/>
       <use xlink:href="#DejaVuSans-31" x="83.789062"/>
       <use xlink:href="#DejaVuSans-2e" x="147.412109"/>
       <use xlink:href="#DejaVuSans-30" x="179.199219"/>
       <use xlink:href="#DejaVuSans-30" x="242.822266"/>
      </g>
     </g>
    </g>
    <g id="ytick_2">
     <g id="line2d_19">
      <path d="M 180 331.559977 
L 1296 331.559977 
" clip-path="url(#p8830904972)" style="fill: none; stroke: #b0b0b0; stroke-width: 0.8; stroke-linecap: square"/>
     </g>
     <g id="line2d_20">
      <g>
       <use xlink:href="#m2b732f7938" x="180" y="331.559977" style="stroke: #000000; stroke-width: 0.8"/>
      </g>
     </g>
     <g id="text_11">
      <!-- −0.75 -->
      <g transform="translate(142.354688 335.359195) scale(0.1 -0.1)">
       <defs>
        <path id="DejaVuSans-37" d="M 525 4666 
L 3525 4666 
L 3525 4397 
L 1831 0 
L 1172 0 
L 2766 4134 
L 525 4134 
L 525 4666 
z
" transform="scale(0.015625)"/>
       </defs>
       <use xlink:href="#DejaVuSans-2212"/>
       <use xlink:href="#DejaVuSans-30" x="83.789062"/>
       <use xlink:href="#DejaVuSans-2e" x="147.412109"/>
       <use xlink:href="#DejaVuSans-37" x="179.199219"/>
       <use xlink:href="#DejaVuSans-35" x="242.822266"/>
      </g>
     </g>
    </g>
    <g id="ytick_3">
     <g id="line2d_21">
      <path d="M 180 293.759953 
L 1296 293.759953 
" clip-path="url(#p8830904972)" style="fill: none; stroke: #b0b0b0; stroke-width: 0.8; stroke-linecap: square"/>
     </g>
     <g id="line2d_22">
      <g>
       <use xlink:href="#m2b732f7938" x="180" y="293.759953" style="stroke: #000000; stroke-width: 0.8"/>
      </g>
     </g>
     <g id="text_12">
      <!-- −0.50 -->
      <g transform="translate(142.354688 297.559172) scale(0.1 -0.1)">
       <use xlink:href="#DejaVuSans-2212"/>
       <use xlink:href="#DejaVuSans-30" x="83.789062"/>
       <use xlink:href="#DejaVuSans-2e" x="147.412109"/>
       <use xlink:href="#DejaVuSans-35" x="179.199219"/>
       <use xlink:href="#DejaVuSans-30" x="242.822266"/>
      </g>
     </g>
    </g>
    <g id="ytick_4">
     <g id="line2d_23">
      <path d="M 180 255.95993 
L 1296 255.95993 
" clip-path="url(#p8830904972)" style="fill: none; stroke: #b0b0b0; stroke-width: 0.8; stroke-linecap: square"/>
     </g>
     <g id="line2d_24">
      <g>
       <use xlink:href="#m2b732f7938" x="180" y="255.95993" style="stroke: #000000; stroke-width: 0.8"/>
      </g>
     </g>
     <g id="text_13">
      <!-- −0.25 -->
      <g transform="translate(142.354688 259.759149) scale(0.1 -0.1)">
       <use xlink:href="#DejaVuSans-2212"/>
       <use xlink:href="#DejaVuSans-30" x="83.789062"/>
       <use xlink:href="#DejaVuSans-2e" x="147.412109"/>
       <use xlink:href="#DejaVuSans-32" x="179.199219"/>
       <use xlink:href="#DejaVuSans-35" x="242.822266"/>
      </g>
     </g>
    </g>
    <g id="ytick_5">
     <g id="line2d_25">
      <path d="M 180 218.159907 
L 1296 218.159907 
" clip-path="url(#p8830904972)" style="fill: none; stroke: #b0b0b0; stroke-width: 0.8; stroke-linecap: square"/>
     </g>
     <g id="line2d_26">
      <g>
       <use xlink:href="#m2b732f7938" x="180" y="218.159907" style="stroke: #000000; stroke-width: 0.8"/>
      </g>
     </g>
     <g id="text_14">
      <!-- 0.00 -->
      <g transform="translate(150.734375 221.959125) scale(0.1 -0.1)">
       <use xlink:href="#DejaVuSans-30"/>
       <use xlink:href="#DejaVuSans-2e" x="63.623047"/>
       <use xlink:href="#DejaVuSans-30" x="95.410156"/>
       <use xlink:href="#DejaVuSans-30" x="159.033203"/>
      </g>
     </g>
    </g>
    <g id="ytick_6">
     <g id="line2d_27">
      <path d="M 180 180.359883 
L 1296 180.359883 
" clip-path="url(#p8830904972)" style="fill: none; stroke: #b0b0b0; stroke-width: 0.8; stroke-linecap: square"/>
     </g>
     <g id="line2d_28">
      <g>
       <use xlink:href="#m2b732f7938" x="180" y="180.359883" style="stroke: #000000; stroke-width: 0.8"/>
      </g>
     </g>
     <g id="text_15">
      <!-- 0.25 -->
      <g transform="translate(150.734375 184.159102) scale(0.1 -0.1)">
       <use xlink:href="#DejaVuSans-30"/>
       <use xlink:href="#DejaVuSans-2e" x="63.623047"/>
       <use xlink:href="#DejaVuSans-32" x="95.410156"/>
       <use xlink:href="#DejaVuSans-35" x="159.033203"/>
      </g>
     </g>
    </g>
    <g id="ytick_7">
     <g id="line2d_29">
      <path d="M 180 142.55986 
L 1296 142.55986 
" clip-path="url(#p8830904972)" style="fill: none; stroke: #b0b0b0; stroke-width: 0.8; stroke-linecap: square"/>
     </g>
     <g id="line2d_30">
      <g>
       <use xlink:href="#m2b732f7938" x="180" y="142.55986" style="stroke: #000000; stroke-width: 0.8"/>
      </g>
     </g>
     <g id="text_16">
      <!-- 0.50 -->
      <g transform="translate(150.734375 146.359079) scale(0.1 -0.1)">
       <use xlink:href="#DejaVuSans-30"/>
       <use xlink:href="#DejaVuSans-2e" x="63.623047"/>
       <use xlink:href="#DejaVuSans-35" x="95.410156"/>
       <use xlink:href="#DejaVuSans-30" x="159.033203"/>
      </g>
     </g>
    </g>
    <g id="ytick_8">
     <g id="line2d_31">
      <path d="M 180 104.759836 
L 1296 104.759836 
" clip-path="url(#p8830904972)" style="fill: none; stroke: #b0b0b0; stroke-width: 0.8; stroke-linecap: square"/>
     </g>
     <g id="line2d_32">
      <g>
       <use xlink:href="#m2b732f7938" x="180" y="104.759836" style="stroke: #000000; stroke-width: 0.8"/>
      </g>
     </g>
     <g id="text_17">
      <!-- 0.75 -->
      <g transform="translate(150.734375 108.559055) scale(0.1 -0.1)">
       <use xlink:href="#DejaVuSans-30"/>
       <use xlink:href="#DejaVuSans-2e" x="63.623047"/>
       <use xlink:href="#DejaVuSans-37" x="95.410156"/>
       <use xlink:href="#DejaVuSans-35" x="159.033203"/>
      </g>
     </g>
    </g>
    <g id="ytick_9">
     <g id="line2d_33">
      <path d="M 180 66.959813 
L 1296 66.959813 
" clip-path="url(#p8830904972)" style="fill: none; stroke: #b0b0b0; stroke-width: 0.8; stroke-linecap: square"/>
     </g>
     <g id="line2d_34">
      <g>
       <use xlink:href="#m2b732f7938" x="180" y="66.959813" style="stroke: #000000; stroke-width: 0.8"/>
      </g>
     </g>
     <g id="text_18">
      <!-- 1.00 -->
      <g transform="translate(150.734375 70.759032) scale(0.1 -0.1)">
       <use xlink:href="#DejaVuSans-31"/>
       <use xlink:href="#DejaVuSans-2e" x="63.623047"/>
       <use xlink:href="#DejaVuSans-30" x="95.410156"/>
       <use xlink:href="#DejaVuSans-30" x="159.033203"/>
      </g>
     </g>
    </g>
    <g id="text_19">
     <!-- current(A) -->
     <g transform="translate(136.275 243.51625) rotate(-90) scale(0.1 -0.1)">
      <defs>
       <path id="DejaVuSans-63" d="M 3122 3366 
L 3122 2828 
Q 2878 2963 2633 3030 
Q 2388 3097 2138 3097 
Q 1578 3097 1268 2742 
Q 959 2388 959 1747 
Q 959 1106 1268 751 
Q 1578 397 2138 397 
Q 2388 397 2633 464 
Q 2878 531 3122 666 
L 3122 134 
Q 2881 22 2623 -34 
Q 2366 -91 2075 -91 
Q 1284 -91 818 406 
Q 353 903 353 1747 
Q 353 2603 823 3093 
Q 1294 3584 2113 3584 
Q 2378 3584 2631 3529 
Q 2884 3475 3122 3366 
z
" transform="scale(0.015625)"/>
       <path id="DejaVuSans-75" d="M 544 1381 
L 544 3500 
L 1119 3500 
L 1119 1403 
Q 1119 906 1312 657 
Q 1506 409 1894 409 
Q 2359 409 2629 706 
Q 2900 1003 2900 1516 
L 2900 3500 
L 3475 3500 
L 3475 0 
L 2900 0 
L 2900 538 
Q 2691 219 2414 64 
Q 2138 -91 1772 -91 
Q 1169 -91 856 284 
Q 544 659 544 1381 
z
M 1991 3584 
L 1991 3584 
z
" transform="scale(0.015625)"/>
       <path id="DejaVuSans-72" d="M 2631 2963 
Q 2534 3019 2420 3045 
Q 2306 3072 2169 3072 
Q 1681 3072 1420 2755 
Q 1159 2438 1159 1844 
L 1159 0 
L 581 0 
L 581 3500 
L 1159 3500 
L 1159 2956 
Q 1341 3275 1631 3429 
Q 1922 3584 2338 3584 
Q 2397 3584 2469 3576 
Q 2541 3569 2628 3553 
L 2631 2963 
z
" transform="scale(0.015625)"/>
       <path id="DejaVuSans-6e" d="M 3513 2113 
L 3513 0 
L 2938 0 
L 2938 2094 
Q 2938 2591 2744 2837 
Q 2550 3084 2163 3084 
Q 1697 3084 1428 2787 
Q 1159 2491 1159 1978 
L 1159 0 
L 581 0 
L 581 3500 
L 1159 3500 
L 1159 2956 
Q 1366 3272 1645 3428 
Q 1925 3584 2291 3584 
Q 2894 3584 3203 3211 
Q 3513 2838 3513 2113 
z
" transform="scale(0.015625)"/>
       <path id="DejaVuSans-41" d="M 2188 4044 
L 1331 1722 
L 3047 1722 
L 2188 4044 
z
M 1831 4666 
L 2547 4666 
L 4325 0 
L 3669 0 
L 3244 1197 
L 1141 1197 
L 716 0 
L 50 0 
L 1831 4666 
z
" transform="scale(0.015625)"/>
      </defs>
      <use xlink:href="#DejaVuSans-63"/>
      <use xlink:href="#DejaVuSans-75" x="54.980469"/>
      <use xlink:href="#DejaVuSans-72" x="118.359375"/>
      <use xlink:href="#DejaVuSans-72" x="157.722656"/>
      <use xlink:href="#DejaVuSans-65" x="196.585938"/>
      <use xlink:href="#DejaVuSans-6e" x="258.109375"/>
      <use xlink:href="#DejaVuSans-74" x="321.488281"/>
      <use xlink:href="#DejaVuSans-28" x="360.697266"/>
      <use xlink:href="#DejaVuSans-41" x="399.710938"/>
      <use xlink:href="#DejaVuSans-29" x="468.119141"/>
     </g>
    </g>
   </g>
   <g id="line2d_35">
    <path d="M 230.727273 218.159907 
L 246.976249 187.933921 
L 256.116298 171.391289 
L 263.225225 158.928169 
L 270.334152 146.923992 
L 276.427518 137.070594 
L 282.520885 127.678885 
L 287.59869 120.243802 
L 292.676495 113.195924 
L 297.7543 106.56312 
L 301.816544 101.573414 
L 305.878788 96.878805 
L 309.941032 92.491176 
L 314.003276 88.421634 
L 318.06552 84.680477 
L 322.127764 81.277177 
L 326.190008 78.220346 
L 330.252252 75.517724 
L 333.298935 73.727354 
L 336.345618 72.142643 
L 339.392301 70.765845 
L 342.438984 69.598922 
L 345.485667 68.643535 
L 348.532351 67.901045 
L 351.579034 67.372508 
L 354.625717 67.058677 
L 357.6724 66.96 
L 360.719083 67.076616 
L 363.765766 67.40836 
L 366.812449 67.954759 
L 369.859132 68.715036 
L 372.905815 69.688107 
L 375.952498 70.872587 
L 378.999181 72.26679 
L 382.045864 73.86873 
L 385.092547 75.676126 
L 388.13923 77.686405 
L 392.201474 80.677384 
L 396.263718 84.016352 
L 400.325962 87.694856 
L 404.388206 91.703586 
L 408.45045 96.032396 
L 412.512695 100.670328 
L 416.574939 105.605643 
L 421.652744 112.173882 
L 426.730549 119.161237 
L 431.808354 126.540077 
L 436.886159 134.281223 
L 442.979525 144.005646 
L 449.072891 154.152272 
L 456.181818 166.446429 
L 464.306306 180.981832 
L 474.461916 199.662461 
L 506.959869 259.927705 
L 515.084357 274.315173 
L 522.193284 286.442957 
L 528.28665 296.420555 
L 534.380016 305.95257 
L 539.457821 313.516303 
L 544.535627 320.702954 
L 549.613432 327.484104 
L 554.691237 333.832937 
L 558.753481 338.583805 
L 562.815725 343.029862 
L 566.877969 347.159855 
L 570.940213 350.96333 
L 575.002457 354.430661 
L 579.064701 357.55307 
L 583.126945 360.322656 
L 586.173628 362.164052 
L 589.220311 363.800401 
L 592.266994 365.229373 
L 595.313677 366.448932 
L 598.36036 367.457342 
L 601.407043 368.253168 
L 604.453726 368.835276 
L 607.50041 369.202837 
L 610.547093 369.355327 
L 613.593776 369.292531 
L 616.640459 369.014536 
L 619.687142 368.52174 
L 622.733825 367.814843 
L 625.780508 366.894853 
L 628.827191 365.763078 
L 631.873874 364.421132 
L 634.920557 362.870924 
L 637.96724 361.114662 
L 641.013923 359.154846 
L 645.076167 356.229985 
L 649.138411 352.955648 
L 653.200655 349.340123 
L 657.262899 345.392562 
L 661.325143 341.122957 
L 665.387387 336.542114 
L 669.449631 331.661629 
L 674.527437 325.158539 
L 679.605242 318.232329 
L 684.683047 310.910388 
L 689.760852 303.221671 
L 695.854218 293.553969 
L 701.947584 283.457005 
L 709.056511 271.211491 
L 717.180999 256.718966 
L 727.336609 238.072247 
L 761.865684 174.112452 
L 769.990172 159.804297 
L 777.099099 147.764208 
L 783.192465 137.874834 
L 789.285831 128.44257 
L 794.363636 120.97036 
L 799.441441 113.882481 
L 804.519247 107.206961 
L 808.581491 102.181241 
L 812.643735 97.449079 
L 816.705979 93.022455 
L 820.768223 88.912571 
L 824.830467 85.129831 
L 828.892711 81.68381 
L 832.954955 78.58323 
L 837.017199 75.835938 
L 840.063882 74.011533 
L 843.110565 72.39238 
L 846.157248 70.980786 
L 849.203931 69.77876 
L 852.250614 68.788015 
L 855.297297 68.00996 
L 858.34398 67.445704 
L 861.390663 67.096049 
L 864.437346 66.961495 
L 867.484029 67.042233 
L 870.530713 67.338146 
L 873.577396 67.848816 
L 876.624079 68.573513 
L 879.670762 69.511206 
L 882.717445 70.66056 
L 885.764128 72.019939 
L 888.810811 73.587407 
L 891.857494 75.360731 
L 894.904177 77.337388 
L 898.966421 80.284318 
L 903.028665 83.580231 
L 907.090909 87.216785 
L 911.153153 91.184774 
L 915.215397 95.474157 
L 919.277641 100.074075 
L 923.339885 104.972885 
L 928.41769 111.497756 
L 933.495495 118.444417 
L 938.573301 125.785397 
L 943.651106 133.491667 
L 949.744472 143.178371 
L 955.837838 153.291989 
L 962.946765 165.553839 
L 971.071253 180.0608 
L 981.226863 198.719007 
L 1014.740377 260.840838 
L 1022.864865 275.197007 
L 1029.973792 287.290071 
L 1036.067158 297.232674 
L 1042.160524 306.725071 
L 1047.238329 314.252417 
L 1052.316134 321.399771 
L 1057.393939 328.138869 
L 1062.471744 334.443061 
L 1066.533989 339.156469 
L 1070.596233 343.563618 
L 1074.658477 347.653351 
L 1078.720721 351.415318 
L 1082.782965 354.839995 
L 1086.845209 357.918716 
L 1090.907453 360.643687 
L 1093.954136 362.451083 
L 1097.000819 364.053023 
L 1100.047502 365.447226 
L 1103.094185 366.631706 
L 1106.140868 367.604777 
L 1109.187551 368.365054 
L 1112.234234 368.911453 
L 1115.280917 369.243197 
L 1118.3276 369.359813 
L 1121.374283 369.261136 
L 1124.420966 368.947305 
L 1127.467649 368.418769 
L 1130.514333 367.676278 
L 1133.561016 366.720891 
L 1136.607699 365.553968 
L 1139.654382 364.177171 
L 1142.701065 362.592459 
L 1145.747748 360.80209 
L 1148.794431 358.808612 
L 1152.856675 355.839643 
L 1156.918919 352.522186 
L 1160.981163 348.864639 
L 1165.043407 344.876259 
L 1169.105651 340.567142 
L 1173.167895 335.948194 
L 1177.230139 331.031107 
L 1182.307944 324.48452 
L 1187.385749 317.517477 
L 1192.463554 310.157531 
L 1197.54136 302.433785 
L 1203.634726 292.728173 
L 1209.728092 282.598001 
L 1216.837019 270.319937 
L 1224.961507 255.798683 
L 1235.117117 237.129172 
L 1245.272727 218.159907 
L 1245.272727 218.159907 
" clip-path="url(#p8830904972)" style="fill: none; stroke: #1f77b4; stroke-width: 1.5; stroke-linecap: square"/>
   </g>
   <g id="line2d_36">
    <path d="M 230.727273 369.36 
L 233.773956 369.252353 
L 236.820639 368.929565 
L 239.867322 368.392097 
L 242.914005 367.640712 
L 245.960688 366.676482 
L 249.007371 365.500779 
L 252.054054 364.115277 
L 255.100737 362.521949 
L 258.14742 360.723064 
L 261.194103 358.721184 
L 265.256347 355.741206 
L 269.318591 352.41299 
L 273.380835 348.74496 
L 277.443079 344.7464 
L 281.505324 340.427431 
L 285.567568 335.798985 
L 289.629812 330.872778 
L 294.707617 324.315357 
L 299.785422 317.338149 
L 304.863227 309.968747 
L 309.941032 302.236291 
L 316.034398 292.521262 
L 322.127764 282.382851 
L 329.236691 270.096725 
L 337.361179 255.568379 
L 347.51679 236.893285 
L 381.030303 174.795231 
L 389.154791 160.46291 
L 396.263718 148.396198 
L 402.357084 138.4801 
L 408.45045 129.017664 
L 413.528256 121.517803 
L 418.606061 114.400107 
L 423.683866 107.692723 
L 428.761671 101.422176 
L 432.823915 96.736985 
L 436.886159 92.359133 
L 440.948403 88.2997 
L 445.010647 84.568963 
L 449.072891 81.176364 
L 453.135135 78.13049 
L 457.197379 75.439051 
L 460.244062 73.657202 
L 463.290745 72.08111 
L 466.337428 70.71302 
L 469.384111 69.55488 
L 472.430794 68.608339 
L 475.477477 67.874744 
L 478.524161 67.355141 
L 481.570844 67.050268 
L 484.617527 66.960561 
L 487.66421 67.086146 
L 490.710893 67.426846 
L 493.757576 67.982174 
L 496.804259 68.751341 
L 499.850942 69.73325 
L 502.897625 70.926505 
L 505.944308 72.329405 
L 508.990991 73.939953 
L 512.037674 75.755856 
L 515.084357 77.774529 
L 519.146601 80.776502 
L 523.208845 84.126212 
L 527.271089 87.815181 
L 531.333333 91.834071 
L 535.395577 96.172711 
L 539.457821 100.820118 
L 543.520066 105.764529 
L 548.597871 112.34357 
L 553.675676 119.341056 
L 558.753481 126.729315 
L 563.831286 134.479132 
L 569.924652 144.212924 
L 576.018018 154.367739 
L 583.126945 166.669897 
L 591.251433 181.212321 
L 601.407043 199.898441 
L 633.904996 260.156145 
L 642.029484 274.535841 
L 649.138411 286.65499 
L 655.231777 296.623876 
L 661.325143 306.146022 
L 666.402948 313.700686 
L 671.480753 320.877539 
L 676.558559 327.648201 
L 681.636364 333.985898 
L 685.698608 338.727418 
L 689.760852 343.163765 
L 693.823096 347.283708 
L 697.88534 351.07682 
L 701.947584 354.533501 
L 706.009828 357.644999 
L 710.072072 360.403441 
L 713.118755 362.236345 
L 716.165438 363.864097 
L 719.212121 365.284382 
L 722.258804 366.495176 
L 725.305487 367.494755 
L 728.35217 368.281696 
L 731.398853 368.854879 
L 734.445536 369.213487 
L 737.492219 369.357009 
L 740.538903 369.285242 
L 743.585586 368.998288 
L 746.632269 368.496555 
L 749.678952 367.780757 
L 752.725635 366.851914 
L 755.772318 365.711348 
L 758.819001 364.360684 
L 761.865684 362.801844 
L 764.912367 361.037048 
L 767.95905 359.06881 
L 772.021294 356.132911 
L 776.083538 352.847781 
L 780.145782 349.221738 
L 784.208026 345.263957 
L 788.27027 340.984458 
L 792.332514 336.394072 
L 796.394758 331.504419 
L 801.472563 324.99043 
L 806.550369 318.053986 
L 811.628174 310.722517 
L 816.705979 303.025014 
L 822.799345 293.347798 
L 828.892711 283.242495 
L 836.001638 270.988798 
L 844.126126 256.489037 
L 854.281736 237.83655 
L 888.810811 173.885076 
L 896.935299 159.585047 
L 904.044226 147.553891 
L 910.137592 137.673475 
L 916.230958 128.251315 
L 921.308763 120.788359 
L 926.386568 113.710454 
L 931.464373 107.045588 
L 935.526618 102.028853 
L 939.588862 97.306062 
L 943.651106 92.88917 
L 947.71335 88.789357 
L 951.775594 85.016999 
L 955.837838 81.581645 
L 959.900082 78.491991 
L 963.962326 75.755856 
L 967.009009 73.939953 
L 970.055692 72.329405 
L 973.102375 70.926505 
L 976.149058 69.73325 
L 979.195741 68.751341 
L 982.242424 67.982174 
L 985.289107 67.426846 
L 988.33579 67.086146 
L 991.382473 66.960561 
L 994.429156 67.050268 
L 997.475839 67.355141 
L 1000.522523 67.874744 
L 1003.569206 68.608339 
L 1006.615889 69.55488 
L 1009.662572 70.71302 
L 1012.709255 72.08111 
L 1015.755938 73.657202 
L 1018.802621 75.439051 
L 1021.849304 77.42412 
L 1025.911548 80.382074 
L 1029.973792 83.688763 
L 1034.036036 87.335818 
L 1038.09828 91.314007 
L 1042.160524 95.613262 
L 1046.222768 100.222701 
L 1050.285012 105.130656 
L 1055.362817 111.666393 
L 1060.440622 118.623253 
L 1065.518428 125.973725 
L 1070.596233 133.688743 
L 1076.689599 143.384913 
L 1082.782965 153.50682 
L 1089.891892 165.776793 
L 1098.01638 180.290918 
L 1108.17199 198.9548 
L 1141.685504 261.068859 
L 1149.809992 275.417114 
L 1156.918919 287.501424 
L 1163.012285 297.435217 
L 1169.105651 306.91765 
L 1174.183456 314.435853 
L 1179.261261 321.573339 
L 1184.339066 328.301882 
L 1189.416871 334.594874 
L 1193.479115 339.298889 
L 1197.54136 343.696282 
L 1201.603604 347.775926 
L 1205.665848 351.527492 
L 1209.728092 354.941485 
L 1213.790336 358.009264 
L 1217.85258 360.723064 
L 1220.899263 362.521949 
L 1223.945946 364.115277 
L 1226.992629 365.500779 
L 1230.039312 366.676482 
L 1233.085995 367.640712 
L 1236.132678 368.392097 
L 1239.179361 368.929565 
L 1242.226044 369.252353 
L 1245.272727 369.36 
L 1245.272727 369.36 
" clip-path="url(#p8830904972)" style="fill: none; stroke: #ff7f0e; stroke-width: 1.5; stroke-linecap: square"/>
   </g>
   <g id="patch_3">
    <path d="M 180 384.48 
L 180 51.84 
" style="fill: none; stroke: #000000; stroke-width: 0.8; stroke-linejoin: miter; stroke-linecap: square"/>
   </g>
   <g id="patch_4">
    <path d="M 1296 384.48 
L 1296 51.84 
" style="fill: none; stroke: #000000; stroke-width: 0.8; stroke-linejoin: miter; stroke-linecap: square"/>
   </g>
   <g id="patch_5">
    <path d="M 180 384.48 
L 1296 384.48 
" style="fill: none; stroke: #000000; stroke-width: 0.8; stroke-linejoin: miter; stroke-linecap: square"/>
   </g>
   <g id="patch_6">
    <path d="M 180 51.84 
L 1296 51.84 
" style="fill: none; stroke: #000000; stroke-width: 0.8; stroke-linejoin: miter; stroke-linecap: square"/>
   </g>
   <g id="legend_1">
    <g id="patch_7">
     <path d="M 1250.4 89.318125 
L 1289 89.318125 
Q 1291 89.318125 1291 87.318125 
L 1291 58.84 
Q 1291 56.84 1289 56.84 
L 1250.4 56.84 
Q 1248.4 56.84 1248.4 58.84 
L 1248.4 87.318125 
Q 1248.4 89.318125 1250.4 89.318125 
z
" style="fill: #ffffff; opacity: 0.8; stroke: #cccccc; stroke-linejoin: miter"/>
    </g>
    <g id="line2d_37">
     <path d="M 1252.4 64.938438 
L 1262.4 64.938438 
L 1272.4 64.938438 
" style="fill: none; stroke: #1f77b4; stroke-width: 1.5; stroke-linecap: square"/>
    </g>
    <g id="text_20">
     <!-- $\alpha$ -->
     <g transform="translate(1280.4 68.438438) scale(0.1 -0.1)">
      <defs>
       <path id="DejaVuSans-Oblique-3b1" d="M 2619 1628 
L 2622 2350 
Q 2625 3088 2069 3091 
Q 1653 3094 1394 2747 
Q 1069 2319 959 1747 
Q 825 1059 994 731 
Q 1169 397 1547 397 
Q 1966 397 2319 1063 
L 2619 1628 
z
M 2166 3578 
Q 3141 3594 3128 2584 
Q 3128 2584 3616 3500 
L 4128 3500 
L 3119 1603 
L 3109 919 
Q 3109 766 3194 638 
Q 3291 488 3391 488 
L 3669 488 
L 3575 0 
L 3228 0 
Q 2934 0 2722 263 
Q 2622 394 2619 669 
Q 2416 334 2066 50 
Q 1900 -81 1453 -78 
Q 722 -72 456 397 
Q 184 884 353 1747 
Q 534 2675 1009 3097 
Q 1544 3569 2166 3578 
z
" transform="scale(0.015625)"/>
      </defs>
      <use xlink:href="#DejaVuSans-Oblique-3b1" transform="translate(0 0.84375)"/>
     </g>
    </g>
    <g id="line2d_38">
     <path d="M 1252.4 79.718125 
L 1262.4 79.718125 
L 1272.4 79.718125 
" style="fill: none; stroke: #ff7f0e; stroke-width: 1.5; stroke-linecap: square"/>
    </g>
    <g id="text_21">
     <!-- $\beta$ -->
     <g transform="translate(1280.4 83.218125) scale(0.1 -0.1)">
      <defs>
       <path id="DejaVuSans-Oblique-3b2" d="M 872 216 
L 572 -1331 
L -6 -1331 
L 928 3478 
Q 1206 4903 2538 4903 
Q 3888 4903 3659 3700 
Q 3503 2844 2894 2531 
Q 3713 2250 3553 1416 
Q 3272 -69 1759 -66 
Q 1097 -63 872 216 
z
M 1019 966 
Q 1259 422 1875 425 
Q 2775 425 2966 1406 
Q 3138 2288 1675 2219 
L 1778 2750 
Q 2909 2731 3106 3750 
Q 3241 4438 2509 4434 
Q 1691 4434 1503 3459 
L 1019 966 
z
" transform="scale(0.015625)"/>
      </defs>
      <use xlink:href="#DejaVuSans-Oblique-3b2" transform="translate(0 0.390625)"/>
     </g>
    </g>
   </g>
  </g>
 </g>
 <defs>
  <clipPath id="p8830904972">
   <rect x="180" y="51.84" width="1116" height="332.64"/>
  </clipPath>
 </defs>
</svg>
