<?xml version="1.0" encoding="UTF-8"?>
<!-- Do not edit this file with editors other than draw.io -->
<!DOCTYPE svg PUBLIC "-//W3C//DTD SVG 1.1//EN" "http://www.w3.org/Graphics/SVG/1.1/DTD/svg11.dtd">
<svg xmlns="http://www.w3.org/2000/svg" xmlns:xlink="http://www.w3.org/1999/xlink" version="1.1" width="107px" height="75px" viewBox="-0.5 -0.5 107 75" content="&lt;mxfile host=&quot;Electron&quot; agent=&quot;Mozilla/5.0 (Windows NT 10.0; Win64; x64) AppleWebKit/537.36 (KHTML, like Gecko) draw.io/24.7.8 Chrome/128.0.6613.36 Electron/32.0.1 Safari/537.36&quot; version=&quot;24.7.8&quot; scale=&quot;1&quot; border=&quot;0&quot;&gt;&#10;  &lt;diagram name=&quot;第 1 页&quot; id=&quot;Anf23R38EXAXayea9jgv&quot;&gt;&#10;    &lt;mxGraphModel dx=&quot;977&quot; dy=&quot;580&quot; grid=&quot;1&quot; gridSize=&quot;10&quot; guides=&quot;1&quot; tooltips=&quot;1&quot; connect=&quot;1&quot; arrows=&quot;1&quot; fold=&quot;1&quot; page=&quot;1&quot; pageScale=&quot;1&quot; pageWidth=&quot;827&quot; pageHeight=&quot;1169&quot; math=&quot;0&quot; shadow=&quot;0&quot;&gt;&#10;      &lt;root&gt;&#10;        &lt;mxCell id=&quot;0&quot; /&gt;&#10;        &lt;mxCell id=&quot;1&quot; parent=&quot;0&quot; /&gt;&#10;        &lt;mxCell id=&quot;PNwvQTDDKEkyIEAqa0r9-2&quot; value=&quot;&quot; style=&quot;pointerEvents=1;verticalLabelPosition=bottom;shadow=0;dashed=0;align=center;html=1;verticalAlign=top;shape=mxgraph.electrical.inductors.inductor_3;&quot; vertex=&quot;1&quot; parent=&quot;1&quot;&gt;&#10;          &lt;mxGeometry x=&quot;364&quot; y=&quot;220&quot; width=&quot;100&quot; height=&quot;8&quot; as=&quot;geometry&quot; /&gt;&#10;        &lt;/mxCell&gt;&#10;        &lt;mxCell id=&quot;PNwvQTDDKEkyIEAqa0r9-4&quot; value=&quot;&quot; style=&quot;pointerEvents=1;verticalLabelPosition=bottom;shadow=0;dashed=0;align=center;html=1;verticalAlign=top;shape=mxgraph.electrical.inductors.inductor_5;&quot; vertex=&quot;1&quot; parent=&quot;1&quot;&gt;&#10;          &lt;mxGeometry x=&quot;370&quot; y=&quot;280&quot; width=&quot;100&quot; height=&quot;14&quot; as=&quot;geometry&quot; /&gt;&#10;        &lt;/mxCell&gt;&#10;      &lt;/root&gt;&#10;    &lt;/mxGraphModel&gt;&#10;  &lt;/diagram&gt;&#10;&lt;/mxfile&gt;&#10;" style="background-color: rgb(255, 255, 255);"><defs/><rect fill="#ffffff" width="100%" height="100%" x="0" y="0"/><g><g data-cell-id="0"><g data-cell-id="1"><g data-cell-id="PNwvQTDDKEkyIEAqa0r9-2"><g><rect x="0" y="0" width="100" height="8" fill="none" stroke="none" pointer-events="all"/><path d="M 0 8 L 18 8 C 18 3.58 21.58 0 26 0 C 30.42 0 34 3.58 34 8 C 34 3.58 37.58 0 42 0 C 46.42 0 50 3.58 50 8 C 50 3.58 53.58 0 58 0 C 62.42 0 66 3.58 66 8 C 66 3.58 69.58 0 74 0 C 78.42 0 82 3.58 82 8 L 100 8" fill="none" stroke="rgb(0, 0, 0)" stroke-linejoin="round" stroke-miterlimit="10" pointer-events="all"/></g></g><g data-cell-id="PNwvQTDDKEkyIEAqa0r9-4"><g><rect x="6" y="60" width="100" height="14" fill="none" stroke="none" pointer-events="all"/><path d="M 6 69.02 L 24 69.02 C 24.26 65.35 26.76 62.2 30.29 61.1 C 33.83 60 37.68 61.17 40 64.05 C 41.79 66.29 42.52 69.19 42 72.01 C 42 73.11 41.1 74 40 74 C 38.9 74 38 73.11 38 72.01 C 37.48 69.19 38.21 66.29 40 64.05 C 42.08 61.66 44.97 60.3 48 60.3 C 51.03 60.3 53.92 61.66 56 64.05 C 57.79 66.29 58.52 69.19 58 72.01 C 58 73.11 57.1 74 56 74 C 54.9 74 54 73.11 54 72.01 C 53.48 69.19 54.21 66.29 56 64.05 C 58.08 61.66 60.97 60.3 64 60.3 C 67.03 60.3 69.92 61.66 72 64.05 C 73.79 66.29 74.52 69.19 74 72.01 C 74 73.11 73.1 74 72 74 C 70.9 74 70 73.11 70 72.01 C 69.48 69.19 70.21 66.29 72 64.05 C 74.32 61.17 78.17 60 81.71 61.1 C 85.24 62.2 87.74 65.35 88 69.02 L 106 69.02" fill="none" stroke="rgb(0, 0, 0)" stroke-linejoin="round" stroke-miterlimit="10" pointer-events="all"/></g></g></g></g></g></svg>